<?xml version="1.0" encoding="utf-8" standalone="no"?>
<!DOCTYPE svg PUBLIC "-//W3C//DTD SVG 1.1//EN"
  "http://www.w3.org/Graphics/SVG/1.1/DTD/svg11.dtd">
<svg xmlns:xlink="http://www.w3.org/1999/xlink" width="432pt" height="432pt" viewBox="0 0 432 432" xmlns="http://www.w3.org/2000/svg" version="1.1">
 <metadata>
  <rdf:RDF xmlns:dc="http://purl.org/dc/elements/1.1/" xmlns:cc="http://creativecommons.org/ns#" xmlns:rdf="http://www.w3.org/1999/02/22-rdf-syntax-ns#">
   <cc:Work>
    <dc:type rdf:resource="http://purl.org/dc/dcmitype/StillImage"/>
    <dc:date>2023-08-02T16:59:26.955405</dc:date>
    <dc:format>image/svg+xml</dc:format>
    <dc:creator>
     <cc:Agent>
      <dc:title>Matplotlib v3.7.2, https://matplotlib.org/</dc:title>
     </cc:Agent>
    </dc:creator>
   </cc:Work>
  </rdf:RDF>
 </metadata>
 <defs>
  <style type="text/css">*{stroke-linejoin: round; stroke-linecap: butt}</style>
 </defs>
 <g id="figure_1">
  <g id="patch_1">
   <path d="M 0 432 
L 432 432 
L 432 0 
L 0 0 
z
" style="fill: #ffffff"/>
  </g>
  <g id="axes_1">
   <g id="patch_2">
    <path d="M 44.675 392.2 
L 356.652857 392.2 
L 356.652857 76.182857 
L 44.675 76.182857 
z
" style="fill: #ffffff"/>
   </g>
   <g id="matplotlib.axis_1">
    <g id="xtick_1">
     <g id="line2d_1">
      <path d="M 68.562305 392.2 
L 68.562305 76.182857 
" clip-path="url(#p44cd9ef252)" style="fill: none; stroke: #cccccc; stroke-width: 0.8; stroke-linecap: round"/>
     </g>
     <g id="text_1">
      <!-- −2 -->
      <g style="fill: #262626" transform="translate(62.861524 406.357812) scale(0.1 -0.1)">
       <defs>
        <path id="ArialMT-2212" d="M 3381 1997 
L 356 1997 
L 356 2522 
L 3381 2522 
L 3381 1997 
z
" transform="scale(0.015625)"/>
        <path id="ArialMT-32" d="M 3222 541 
L 3222 0 
L 194 0 
Q 188 203 259 391 
Q 375 700 629 1000 
Q 884 1300 1366 1694 
Q 2113 2306 2375 2664 
Q 2638 3022 2638 3341 
Q 2638 3675 2398 3904 
Q 2159 4134 1775 4134 
Q 1369 4134 1125 3890 
Q 881 3647 878 3216 
L 300 3275 
Q 359 3922 746 4261 
Q 1134 4600 1788 4600 
Q 2447 4600 2831 4234 
Q 3216 3869 3216 3328 
Q 3216 3053 3103 2787 
Q 2991 2522 2730 2228 
Q 2469 1934 1863 1422 
Q 1356 997 1212 845 
Q 1069 694 975 541 
L 3222 541 
z
" transform="scale(0.015625)"/>
       </defs>
       <use xlink:href="#ArialMT-2212"/>
       <use xlink:href="#ArialMT-32" x="58.398438"/>
      </g>
     </g>
    </g>
    <g id="xtick_2">
     <g id="line2d_2">
      <path d="M 126.242267 392.2 
L 126.242267 76.182857 
" clip-path="url(#p44cd9ef252)" style="fill: none; stroke: #cccccc; stroke-width: 0.8; stroke-linecap: round"/>
     </g>
     <g id="text_2">
      <!-- −1 -->
      <g style="fill: #262626" transform="translate(120.541486 406.357812) scale(0.1 -0.1)">
       <defs>
        <path id="ArialMT-31" d="M 2384 0 
L 1822 0 
L 1822 3584 
Q 1619 3391 1289 3197 
Q 959 3003 697 2906 
L 697 3450 
Q 1169 3672 1522 3987 
Q 1875 4303 2022 4600 
L 2384 4600 
L 2384 0 
z
" transform="scale(0.015625)"/>
       </defs>
       <use xlink:href="#ArialMT-2212"/>
       <use xlink:href="#ArialMT-31" x="58.398438"/>
      </g>
     </g>
    </g>
    <g id="xtick_3">
     <g id="line2d_3">
      <path d="M 183.922229 392.2 
L 183.922229 76.182857 
" clip-path="url(#p44cd9ef252)" style="fill: none; stroke: #cccccc; stroke-width: 0.8; stroke-linecap: round"/>
     </g>
     <g id="text_3">
      <!-- 0 -->
      <g style="fill: #262626" transform="translate(181.14176 406.357812) scale(0.1 -0.1)">
       <defs>
        <path id="ArialMT-30" d="M 266 2259 
Q 266 3072 433 3567 
Q 600 4063 929 4331 
Q 1259 4600 1759 4600 
Q 2128 4600 2406 4451 
Q 2684 4303 2865 4023 
Q 3047 3744 3150 3342 
Q 3253 2941 3253 2259 
Q 3253 1453 3087 958 
Q 2922 463 2592 192 
Q 2263 -78 1759 -78 
Q 1097 -78 719 397 
Q 266 969 266 2259 
z
M 844 2259 
Q 844 1131 1108 757 
Q 1372 384 1759 384 
Q 2147 384 2411 759 
Q 2675 1134 2675 2259 
Q 2675 3391 2411 3762 
Q 2147 4134 1753 4134 
Q 1366 4134 1134 3806 
Q 844 3388 844 2259 
z
" transform="scale(0.015625)"/>
       </defs>
       <use xlink:href="#ArialMT-30"/>
      </g>
     </g>
    </g>
    <g id="xtick_4">
     <g id="line2d_4">
      <path d="M 241.602191 392.2 
L 241.602191 76.182857 
" clip-path="url(#p44cd9ef252)" style="fill: none; stroke: #cccccc; stroke-width: 0.8; stroke-linecap: round"/>
     </g>
     <g id="text_4">
      <!-- 1 -->
      <g style="fill: #262626" transform="translate(238.821722 406.357812) scale(0.1 -0.1)">
       <use xlink:href="#ArialMT-31"/>
      </g>
     </g>
    </g>
    <g id="xtick_5">
     <g id="line2d_5">
      <path d="M 299.282152 392.2 
L 299.282152 76.182857 
" clip-path="url(#p44cd9ef252)" style="fill: none; stroke: #cccccc; stroke-width: 0.8; stroke-linecap: round"/>
     </g>
     <g id="text_5">
      <!-- 2 -->
      <g style="fill: #262626" transform="translate(296.501684 406.357812) scale(0.1 -0.1)">
       <use xlink:href="#ArialMT-32"/>
      </g>
     </g>
    </g>
    <g id="text_6">
     <!-- measure_a -->
     <g style="fill: #262626" transform="translate(175.651429 419.503125) scale(0.1 -0.1)">
      <defs>
       <path id="ArialMT-6d" d="M 422 0 
L 422 3319 
L 925 3319 
L 925 2853 
Q 1081 3097 1340 3245 
Q 1600 3394 1931 3394 
Q 2300 3394 2536 3241 
Q 2772 3088 2869 2813 
Q 3263 3394 3894 3394 
Q 4388 3394 4653 3120 
Q 4919 2847 4919 2278 
L 4919 0 
L 4359 0 
L 4359 2091 
Q 4359 2428 4304 2576 
Q 4250 2725 4106 2815 
Q 3963 2906 3769 2906 
Q 3419 2906 3187 2673 
Q 2956 2441 2956 1928 
L 2956 0 
L 2394 0 
L 2394 2156 
Q 2394 2531 2256 2718 
Q 2119 2906 1806 2906 
Q 1569 2906 1367 2781 
Q 1166 2656 1075 2415 
Q 984 2175 984 1722 
L 984 0 
L 422 0 
z
" transform="scale(0.015625)"/>
       <path id="ArialMT-65" d="M 2694 1069 
L 3275 997 
Q 3138 488 2766 206 
Q 2394 -75 1816 -75 
Q 1088 -75 661 373 
Q 234 822 234 1631 
Q 234 2469 665 2931 
Q 1097 3394 1784 3394 
Q 2450 3394 2872 2941 
Q 3294 2488 3294 1666 
Q 3294 1616 3291 1516 
L 816 1516 
Q 847 969 1125 678 
Q 1403 388 1819 388 
Q 2128 388 2347 550 
Q 2566 713 2694 1069 
z
M 847 1978 
L 2700 1978 
Q 2663 2397 2488 2606 
Q 2219 2931 1791 2931 
Q 1403 2931 1139 2672 
Q 875 2413 847 1978 
z
" transform="scale(0.015625)"/>
       <path id="ArialMT-61" d="M 2588 409 
Q 2275 144 1986 34 
Q 1697 -75 1366 -75 
Q 819 -75 525 192 
Q 231 459 231 875 
Q 231 1119 342 1320 
Q 453 1522 633 1644 
Q 813 1766 1038 1828 
Q 1203 1872 1538 1913 
Q 2219 1994 2541 2106 
Q 2544 2222 2544 2253 
Q 2544 2597 2384 2738 
Q 2169 2928 1744 2928 
Q 1347 2928 1158 2789 
Q 969 2650 878 2297 
L 328 2372 
Q 403 2725 575 2942 
Q 747 3159 1072 3276 
Q 1397 3394 1825 3394 
Q 2250 3394 2515 3294 
Q 2781 3194 2906 3042 
Q 3031 2891 3081 2659 
Q 3109 2516 3109 2141 
L 3109 1391 
Q 3109 606 3145 398 
Q 3181 191 3288 0 
L 2700 0 
Q 2613 175 2588 409 
z
M 2541 1666 
Q 2234 1541 1622 1453 
Q 1275 1403 1131 1340 
Q 988 1278 909 1158 
Q 831 1038 831 891 
Q 831 666 1001 516 
Q 1172 366 1500 366 
Q 1825 366 2078 508 
Q 2331 650 2450 897 
Q 2541 1088 2541 1459 
L 2541 1666 
z
" transform="scale(0.015625)"/>
       <path id="ArialMT-73" d="M 197 991 
L 753 1078 
Q 800 744 1014 566 
Q 1228 388 1613 388 
Q 2000 388 2187 545 
Q 2375 703 2375 916 
Q 2375 1106 2209 1216 
Q 2094 1291 1634 1406 
Q 1016 1563 777 1677 
Q 538 1791 414 1992 
Q 291 2194 291 2438 
Q 291 2659 392 2848 
Q 494 3038 669 3163 
Q 800 3259 1026 3326 
Q 1253 3394 1513 3394 
Q 1903 3394 2198 3281 
Q 2494 3169 2634 2976 
Q 2775 2784 2828 2463 
L 2278 2388 
Q 2241 2644 2061 2787 
Q 1881 2931 1553 2931 
Q 1166 2931 1000 2803 
Q 834 2675 834 2503 
Q 834 2394 903 2306 
Q 972 2216 1119 2156 
Q 1203 2125 1616 2013 
Q 2213 1853 2448 1751 
Q 2684 1650 2818 1456 
Q 2953 1263 2953 975 
Q 2953 694 2789 445 
Q 2625 197 2315 61 
Q 2006 -75 1616 -75 
Q 969 -75 630 194 
Q 291 463 197 991 
z
" transform="scale(0.015625)"/>
       <path id="ArialMT-75" d="M 2597 0 
L 2597 488 
Q 2209 -75 1544 -75 
Q 1250 -75 995 37 
Q 741 150 617 320 
Q 494 491 444 738 
Q 409 903 409 1263 
L 409 3319 
L 972 3319 
L 972 1478 
Q 972 1038 1006 884 
Q 1059 663 1231 536 
Q 1403 409 1656 409 
Q 1909 409 2131 539 
Q 2353 669 2445 892 
Q 2538 1116 2538 1541 
L 2538 3319 
L 3100 3319 
L 3100 0 
L 2597 0 
z
" transform="scale(0.015625)"/>
       <path id="ArialMT-72" d="M 416 0 
L 416 3319 
L 922 3319 
L 922 2816 
Q 1116 3169 1280 3281 
Q 1444 3394 1641 3394 
Q 1925 3394 2219 3213 
L 2025 2691 
Q 1819 2813 1613 2813 
Q 1428 2813 1281 2702 
Q 1134 2591 1072 2394 
Q 978 2094 978 1738 
L 978 0 
L 416 0 
z
" transform="scale(0.015625)"/>
       <path id="ArialMT-5f" d="M -97 -1272 
L -97 -866 
L 3631 -866 
L 3631 -1272 
L -97 -1272 
z
" transform="scale(0.015625)"/>
      </defs>
      <use xlink:href="#ArialMT-6d"/>
      <use xlink:href="#ArialMT-65" x="83.300781"/>
      <use xlink:href="#ArialMT-61" x="138.916016"/>
      <use xlink:href="#ArialMT-73" x="194.53125"/>
      <use xlink:href="#ArialMT-75" x="244.53125"/>
      <use xlink:href="#ArialMT-72" x="300.146484"/>
      <use xlink:href="#ArialMT-65" x="333.447266"/>
      <use xlink:href="#ArialMT-5f" x="389.0625"/>
      <use xlink:href="#ArialMT-61" x="444.677734"/>
     </g>
    </g>
   </g>
   <g id="matplotlib.axis_2">
    <g id="ytick_1">
     <g id="line2d_6">
      <path d="M 44.675 350.182854 
L 356.652857 350.182854 
" clip-path="url(#p44cd9ef252)" style="fill: none; stroke: #cccccc; stroke-width: 0.8; stroke-linecap: round"/>
     </g>
     <g id="text_7">
      <!-- −2 -->
      <g style="fill: #262626" transform="translate(26.273438 353.76176) scale(0.1 -0.1)">
       <use xlink:href="#ArialMT-2212"/>
       <use xlink:href="#ArialMT-32" x="58.398438"/>
      </g>
     </g>
    </g>
    <g id="ytick_2">
     <g id="line2d_7">
      <path d="M 44.675 292.207567 
L 356.652857 292.207567 
" clip-path="url(#p44cd9ef252)" style="fill: none; stroke: #cccccc; stroke-width: 0.8; stroke-linecap: round"/>
     </g>
     <g id="text_8">
      <!-- −1 -->
      <g style="fill: #262626" transform="translate(26.273438 295.786473) scale(0.1 -0.1)">
       <use xlink:href="#ArialMT-2212"/>
       <use xlink:href="#ArialMT-31" x="58.398438"/>
      </g>
     </g>
    </g>
    <g id="ytick_3">
     <g id="line2d_8">
      <path d="M 44.675 234.232279 
L 356.652857 234.232279 
" clip-path="url(#p44cd9ef252)" style="fill: none; stroke: #cccccc; stroke-width: 0.8; stroke-linecap: round"/>
     </g>
     <g id="text_9">
      <!-- 0 -->
      <g style="fill: #262626" transform="translate(32.114063 237.811185) scale(0.1 -0.1)">
       <use xlink:href="#ArialMT-30"/>
      </g>
     </g>
    </g>
    <g id="ytick_4">
     <g id="line2d_9">
      <path d="M 44.675 176.256991 
L 356.652857 176.256991 
" clip-path="url(#p44cd9ef252)" style="fill: none; stroke: #cccccc; stroke-width: 0.8; stroke-linecap: round"/>
     </g>
     <g id="text_10">
      <!-- 1 -->
      <g style="fill: #262626" transform="translate(32.114063 179.835898) scale(0.1 -0.1)">
       <use xlink:href="#ArialMT-31"/>
      </g>
     </g>
    </g>
    <g id="ytick_5">
     <g id="line2d_10">
      <path d="M 44.675 118.281704 
L 356.652857 118.281704 
" clip-path="url(#p44cd9ef252)" style="fill: none; stroke: #cccccc; stroke-width: 0.8; stroke-linecap: round"/>
     </g>
     <g id="text_11">
      <!-- 2 -->
      <g style="fill: #262626" transform="translate(32.114063 121.86061) scale(0.1 -0.1)">
       <use xlink:href="#ArialMT-32"/>
      </g>
     </g>
    </g>
    <g id="text_12">
     <!-- measure_b -->
     <g style="fill: #262626" transform="translate(20.285938 259.203929) rotate(-90) scale(0.1 -0.1)">
      <defs>
       <path id="ArialMT-62" d="M 941 0 
L 419 0 
L 419 4581 
L 981 4581 
L 981 2947 
Q 1338 3394 1891 3394 
Q 2197 3394 2470 3270 
Q 2744 3147 2920 2923 
Q 3097 2700 3197 2384 
Q 3297 2069 3297 1709 
Q 3297 856 2875 390 
Q 2453 -75 1863 -75 
Q 1275 -75 941 416 
L 941 0 
z
M 934 1684 
Q 934 1088 1097 822 
Q 1363 388 1816 388 
Q 2184 388 2453 708 
Q 2722 1028 2722 1663 
Q 2722 2313 2464 2622 
Q 2206 2931 1841 2931 
Q 1472 2931 1203 2611 
Q 934 2291 934 1684 
z
" transform="scale(0.015625)"/>
      </defs>
      <use xlink:href="#ArialMT-6d"/>
      <use xlink:href="#ArialMT-65" x="83.300781"/>
      <use xlink:href="#ArialMT-61" x="138.916016"/>
      <use xlink:href="#ArialMT-73" x="194.53125"/>
      <use xlink:href="#ArialMT-75" x="244.53125"/>
      <use xlink:href="#ArialMT-72" x="300.146484"/>
      <use xlink:href="#ArialMT-65" x="333.447266"/>
      <use xlink:href="#ArialMT-5f" x="389.0625"/>
      <use xlink:href="#ArialMT-62" x="444.677734"/>
     </g>
    </g>
   </g>
   <g id="PathCollection_1">
    <defs>
     <path id="m7c4989fffc" d="M 0 3 
C 0.795609 3 1.55874 2.683901 2.12132 2.12132 
C 2.683901 1.55874 3 0.795609 3 0 
C 3 -0.795609 2.683901 -1.55874 2.12132 -2.12132 
C 1.55874 -2.683901 0.795609 -3 0 -3 
C -0.795609 -3 -1.55874 -2.683901 -2.12132 -2.12132 
C -2.683901 -1.55874 -3 -0.795609 -3 0 
C -3 0.795609 -2.683901 1.55874 -2.12132 2.12132 
C -1.55874 2.683901 -0.795609 3 0 3 
z
" style="stroke: #1f77b4; stroke-opacity: 0.8"/>
    </defs>
    <g clip-path="url(#p44cd9ef252)">
     <use xlink:href="#m7c4989fffc" x="218.914293" y="232.195693" style="fill: #1f77b4; fill-opacity: 0.8; stroke: #1f77b4; stroke-opacity: 0.8"/>
     <use xlink:href="#m7c4989fffc" x="168.959878" y="230.680766" style="fill: #1f77b4; fill-opacity: 0.8; stroke: #1f77b4; stroke-opacity: 0.8"/>
     <use xlink:href="#m7c4989fffc" x="152.089558" y="199.632251" style="fill: #1f77b4; fill-opacity: 0.8; stroke: #1f77b4; stroke-opacity: 0.8"/>
     <use xlink:href="#m7c4989fffc" x="143.520322" y="125.201508" style="fill: #1f77b4; fill-opacity: 0.8; stroke: #1f77b4; stroke-opacity: 0.8"/>
     <use xlink:href="#m7c4989fffc" x="110.539309" y="211.373696" style="fill: #1f77b4; fill-opacity: 0.8; stroke: #1f77b4; stroke-opacity: 0.8"/>
     <use xlink:href="#m7c4989fffc" x="205.089931" y="310.379498" style="fill: #1f77b4; fill-opacity: 0.8; stroke: #1f77b4; stroke-opacity: 0.8"/>
     <use xlink:href="#m7c4989fffc" x="247.193736" y="245.260998" style="fill: #1f77b4; fill-opacity: 0.8; stroke: #1f77b4; stroke-opacity: 0.8"/>
     <use xlink:href="#m7c4989fffc" x="112.174055" y="163.956759" style="fill: #1f77b4; fill-opacity: 0.8; stroke: #1f77b4; stroke-opacity: 0.8"/>
     <use xlink:href="#m7c4989fffc" x="217.050487" y="251.980186" style="fill: #1f77b4; fill-opacity: 0.8; stroke: #1f77b4; stroke-opacity: 0.8"/>
     <use xlink:href="#m7c4989fffc" x="214.778648" y="216.608487" style="fill: #1f77b4; fill-opacity: 0.8; stroke: #1f77b4; stroke-opacity: 0.8"/>
     <use xlink:href="#m7c4989fffc" x="87.682315" y="214.654583" style="fill: #1f77b4; fill-opacity: 0.8; stroke: #1f77b4; stroke-opacity: 0.8"/>
     <use xlink:href="#m7c4989fffc" x="84.359582" y="214.668673" style="fill: #1f77b4; fill-opacity: 0.8; stroke: #1f77b4; stroke-opacity: 0.8"/>
     <use xlink:href="#m7c4989fffc" x="127.18172" y="334.352148" style="fill: #1f77b4; fill-opacity: 0.8; stroke: #1f77b4; stroke-opacity: 0.8"/>
     <use xlink:href="#m7c4989fffc" x="150.137936" y="267.260988" style="fill: #1f77b4; fill-opacity: 0.8; stroke: #1f77b4; stroke-opacity: 0.8"/>
     <use xlink:href="#m7c4989fffc" x="271.254273" y="350.181453" style="fill: #1f77b4; fill-opacity: 0.8; stroke: #1f77b4; stroke-opacity: 0.8"/>
     <use xlink:href="#m7c4989fffc" x="151.169212" y="237.564464" style="fill: #1f77b4; fill-opacity: 0.8; stroke: #1f77b4; stroke-opacity: 0.8"/>
     <use xlink:href="#m7c4989fffc" x="182.219636" y="250.051808" style="fill: #1f77b4; fill-opacity: 0.8; stroke: #1f77b4; stroke-opacity: 0.8"/>
     <use xlink:href="#m7c4989fffc" x="221.835121" y="142.724047" style="fill: #1f77b4; fill-opacity: 0.8; stroke: #1f77b4; stroke-opacity: 0.8"/>
     <use xlink:href="#m7c4989fffc" x="228.135192" y="326.076373" style="fill: #1f77b4; fill-opacity: 0.8; stroke: #1f77b4; stroke-opacity: 0.8"/>
     <use xlink:href="#m7c4989fffc" x="249.035619" y="201.33579" style="fill: #1f77b4; fill-opacity: 0.8; stroke: #1f77b4; stroke-opacity: 0.8"/>
     <use xlink:href="#m7c4989fffc" x="136.754013" y="250.893411" style="fill: #1f77b4; fill-opacity: 0.8; stroke: #1f77b4; stroke-opacity: 0.8"/>
     <use xlink:href="#m7c4989fffc" x="232.605226" y="244.213964" style="fill: #1f77b4; fill-opacity: 0.8; stroke: #1f77b4; stroke-opacity: 0.8"/>
     <use xlink:href="#m7c4989fffc" x="342.472045" y="299.380747" style="fill: #1f77b4; fill-opacity: 0.8; stroke: #1f77b4; stroke-opacity: 0.8"/>
     <use xlink:href="#m7c4989fffc" x="250.87589" y="200.660864" style="fill: #1f77b4; fill-opacity: 0.8; stroke: #1f77b4; stroke-opacity: 0.8"/>
     <use xlink:href="#m7c4989fffc" x="205.109337" y="273.509745" style="fill: #1f77b4; fill-opacity: 0.8; stroke: #1f77b4; stroke-opacity: 0.8"/>
     <use xlink:href="#m7c4989fffc" x="152.165965" y="234.446978" style="fill: #1f77b4; fill-opacity: 0.8; stroke: #1f77b4; stroke-opacity: 0.8"/>
     <use xlink:href="#m7c4989fffc" x="227.261038" y="244.176511" style="fill: #1f77b4; fill-opacity: 0.8; stroke: #1f77b4; stroke-opacity: 0.8"/>
     <use xlink:href="#m7c4989fffc" x="170.417203" y="235.379374" style="fill: #1f77b4; fill-opacity: 0.8; stroke: #1f77b4; stroke-opacity: 0.8"/>
     <use xlink:href="#m7c4989fffc" x="127.296587" y="327.974918" style="fill: #1f77b4; fill-opacity: 0.8; stroke: #1f77b4; stroke-opacity: 0.8"/>
     <use xlink:href="#m7c4989fffc" x="140.53636" y="240.65515" style="fill: #1f77b4; fill-opacity: 0.8; stroke: #1f77b4; stroke-opacity: 0.8"/>
     <use xlink:href="#m7c4989fffc" x="253.768568" y="208.316645" style="fill: #1f77b4; fill-opacity: 0.8; stroke: #1f77b4; stroke-opacity: 0.8"/>
     <use xlink:href="#m7c4989fffc" x="62.732405" y="186.487404" style="fill: #1f77b4; fill-opacity: 0.8; stroke: #1f77b4; stroke-opacity: 0.8"/>
     <use xlink:href="#m7c4989fffc" x="255.498388" y="201.342591" style="fill: #1f77b4; fill-opacity: 0.8; stroke: #1f77b4; stroke-opacity: 0.8"/>
     <use xlink:href="#m7c4989fffc" x="265.450795" y="216.388613" style="fill: #1f77b4; fill-opacity: 0.8; stroke: #1f77b4; stroke-opacity: 0.8"/>
     <use xlink:href="#m7c4989fffc" x="271.232288" y="276.09823" style="fill: #1f77b4; fill-opacity: 0.8; stroke: #1f77b4; stroke-opacity: 0.8"/>
     <use xlink:href="#m7c4989fffc" x="194.152307" y="292.977443" style="fill: #1f77b4; fill-opacity: 0.8; stroke: #1f77b4; stroke-opacity: 0.8"/>
     <use xlink:href="#m7c4989fffc" x="206.529058" y="273.216532" style="fill: #1f77b4; fill-opacity: 0.8; stroke: #1f77b4; stroke-opacity: 0.8"/>
     <use xlink:href="#m7c4989fffc" x="178.668839" y="249.773677" style="fill: #1f77b4; fill-opacity: 0.8; stroke: #1f77b4; stroke-opacity: 0.8"/>
     <use xlink:href="#m7c4989fffc" x="223.498799" y="178.366052" style="fill: #1f77b4; fill-opacity: 0.8; stroke: #1f77b4; stroke-opacity: 0.8"/>
     <use xlink:href="#m7c4989fffc" x="129.674123" y="270.091331" style="fill: #1f77b4; fill-opacity: 0.8; stroke: #1f77b4; stroke-opacity: 0.8"/>
     <use xlink:href="#m7c4989fffc" x="149.736328" y="325.23553" style="fill: #1f77b4; fill-opacity: 0.8; stroke: #1f77b4; stroke-opacity: 0.8"/>
     <use xlink:href="#m7c4989fffc" x="102.280743" y="377.835584" style="fill: #1f77b4; fill-opacity: 0.8; stroke: #1f77b4; stroke-opacity: 0.8"/>
     <use xlink:href="#m7c4989fffc" x="65.757658" y="173.601928" style="fill: #1f77b4; fill-opacity: 0.8; stroke: #1f77b4; stroke-opacity: 0.8"/>
     <use xlink:href="#m7c4989fffc" x="88.268114" y="226.273297" style="fill: #1f77b4; fill-opacity: 0.8; stroke: #1f77b4; stroke-opacity: 0.8"/>
     <use xlink:href="#m7c4989fffc" x="196.396934" y="288.374473" style="fill: #1f77b4; fill-opacity: 0.8; stroke: #1f77b4; stroke-opacity: 0.8"/>
     <use xlink:href="#m7c4989fffc" x="186.641511" y="205.623018" style="fill: #1f77b4; fill-opacity: 0.8; stroke: #1f77b4; stroke-opacity: 0.8"/>
     <use xlink:href="#m7c4989fffc" x="182.335136" y="220.48167" style="fill: #1f77b4; fill-opacity: 0.8; stroke: #1f77b4; stroke-opacity: 0.8"/>
     <use xlink:href="#m7c4989fffc" x="182.613709" y="181.16405" style="fill: #1f77b4; fill-opacity: 0.8; stroke: #1f77b4; stroke-opacity: 0.8"/>
     <use xlink:href="#m7c4989fffc" x="145.496349" y="220.296566" style="fill: #1f77b4; fill-opacity: 0.8; stroke: #1f77b4; stroke-opacity: 0.8"/>
     <use xlink:href="#m7c4989fffc" x="101.787196" y="147.786414" style="fill: #1f77b4; fill-opacity: 0.8; stroke: #1f77b4; stroke-opacity: 0.8"/>
     <use xlink:href="#m7c4989fffc" x="230.806181" y="118.994688" style="fill: #1f77b4; fill-opacity: 0.8; stroke: #1f77b4; stroke-opacity: 0.8"/>
     <use xlink:href="#m7c4989fffc" x="257.633958" y="318.153356" style="fill: #1f77b4; fill-opacity: 0.8; stroke: #1f77b4; stroke-opacity: 0.8"/>
     <use xlink:href="#m7c4989fffc" x="199.739309" y="201.224504" style="fill: #1f77b4; fill-opacity: 0.8; stroke: #1f77b4; stroke-opacity: 0.8"/>
     <use xlink:href="#m7c4989fffc" x="288.38855" y="277.22024" style="fill: #1f77b4; fill-opacity: 0.8; stroke: #1f77b4; stroke-opacity: 0.8"/>
     <use xlink:href="#m7c4989fffc" x="160.182578" y="175.949178" style="fill: #1f77b4; fill-opacity: 0.8; stroke: #1f77b4; stroke-opacity: 0.8"/>
     <use xlink:href="#m7c4989fffc" x="244.988094" y="185.50928" style="fill: #1f77b4; fill-opacity: 0.8; stroke: #1f77b4; stroke-opacity: 0.8"/>
     <use xlink:href="#m7c4989fffc" x="167.924045" y="233.755712" style="fill: #1f77b4; fill-opacity: 0.8; stroke: #1f77b4; stroke-opacity: 0.8"/>
     <use xlink:href="#m7c4989fffc" x="240.542052" y="290.676168" style="fill: #1f77b4; fill-opacity: 0.8; stroke: #1f77b4; stroke-opacity: 0.8"/>
     <use xlink:href="#m7c4989fffc" x="171.695576" y="179.071668" style="fill: #1f77b4; fill-opacity: 0.8; stroke: #1f77b4; stroke-opacity: 0.8"/>
     <use xlink:href="#m7c4989fffc" x="172.288804" y="260.335057" style="fill: #1f77b4; fill-opacity: 0.8; stroke: #1f77b4; stroke-opacity: 0.8"/>
     <use xlink:href="#m7c4989fffc" x="200.080978" y="354.488936" style="fill: #1f77b4; fill-opacity: 0.8; stroke: #1f77b4; stroke-opacity: 0.8"/>
     <use xlink:href="#m7c4989fffc" x="165.972172" y="124.535696" style="fill: #1f77b4; fill-opacity: 0.8; stroke: #1f77b4; stroke-opacity: 0.8"/>
     <use xlink:href="#m7c4989fffc" x="121.023201" y="247.890708" style="fill: #1f77b4; fill-opacity: 0.8; stroke: #1f77b4; stroke-opacity: 0.8"/>
     <use xlink:href="#m7c4989fffc" x="215.566217" y="211.898415" style="fill: #1f77b4; fill-opacity: 0.8; stroke: #1f77b4; stroke-opacity: 0.8"/>
     <use xlink:href="#m7c4989fffc" x="144.53208" y="136.574827" style="fill: #1f77b4; fill-opacity: 0.8; stroke: #1f77b4; stroke-opacity: 0.8"/>
     <use xlink:href="#m7c4989fffc" x="173.096457" y="239.939145" style="fill: #1f77b4; fill-opacity: 0.8; stroke: #1f77b4; stroke-opacity: 0.8"/>
     <use xlink:href="#m7c4989fffc" x="207.393968" y="345.144355" style="fill: #1f77b4; fill-opacity: 0.8; stroke: #1f77b4; stroke-opacity: 0.8"/>
     <use xlink:href="#m7c4989fffc" x="83.257016" y="172.520921" style="fill: #1f77b4; fill-opacity: 0.8; stroke: #1f77b4; stroke-opacity: 0.8"/>
     <use xlink:href="#m7c4989fffc" x="164.590174" y="330.179241" style="fill: #1f77b4; fill-opacity: 0.8; stroke: #1f77b4; stroke-opacity: 0.8"/>
     <use xlink:href="#m7c4989fffc" x="313.61635" y="266.763201" style="fill: #1f77b4; fill-opacity: 0.8; stroke: #1f77b4; stroke-opacity: 0.8"/>
     <use xlink:href="#m7c4989fffc" x="203.163808" y="356.461477" style="fill: #1f77b4; fill-opacity: 0.8; stroke: #1f77b4; stroke-opacity: 0.8"/>
     <use xlink:href="#m7c4989fffc" x="154.788753" y="308.462065" style="fill: #1f77b4; fill-opacity: 0.8; stroke: #1f77b4; stroke-opacity: 0.8"/>
     <use xlink:href="#m7c4989fffc" x="230.460552" y="222.362045" style="fill: #1f77b4; fill-opacity: 0.8; stroke: #1f77b4; stroke-opacity: 0.8"/>
     <use xlink:href="#m7c4989fffc" x="166.929301" y="207.433741" style="fill: #1f77b4; fill-opacity: 0.8; stroke: #1f77b4; stroke-opacity: 0.8"/>
     <use xlink:href="#m7c4989fffc" x="96.19654" y="226.89714" style="fill: #1f77b4; fill-opacity: 0.8; stroke: #1f77b4; stroke-opacity: 0.8"/>
     <use xlink:href="#m7c4989fffc" x="195.696954" y="233.505639" style="fill: #1f77b4; fill-opacity: 0.8; stroke: #1f77b4; stroke-opacity: 0.8"/>
     <use xlink:href="#m7c4989fffc" x="121.201652" y="201.231381" style="fill: #1f77b4; fill-opacity: 0.8; stroke: #1f77b4; stroke-opacity: 0.8"/>
     <use xlink:href="#m7c4989fffc" x="140.442406" y="252.340865" style="fill: #1f77b4; fill-opacity: 0.8; stroke: #1f77b4; stroke-opacity: 0.8"/>
     <use xlink:href="#m7c4989fffc" x="269.470831" y="160.647009" style="fill: #1f77b4; fill-opacity: 0.8; stroke: #1f77b4; stroke-opacity: 0.8"/>
     <use xlink:href="#m7c4989fffc" x="222.825591" y="276.372849" style="fill: #1f77b4; fill-opacity: 0.8; stroke: #1f77b4; stroke-opacity: 0.8"/>
     <use xlink:href="#m7c4989fffc" x="90.314414" y="200.435918" style="fill: #1f77b4; fill-opacity: 0.8; stroke: #1f77b4; stroke-opacity: 0.8"/>
     <use xlink:href="#m7c4989fffc" x="166.481723" y="173.718185" style="fill: #1f77b4; fill-opacity: 0.8; stroke: #1f77b4; stroke-opacity: 0.8"/>
     <use xlink:href="#m7c4989fffc" x="200.797755" y="90.547273" style="fill: #1f77b4; fill-opacity: 0.8; stroke: #1f77b4; stroke-opacity: 0.8"/>
     <use xlink:href="#m7c4989fffc" x="190.864359" y="154.750513" style="fill: #1f77b4; fill-opacity: 0.8; stroke: #1f77b4; stroke-opacity: 0.8"/>
     <use xlink:href="#m7c4989fffc" x="332.930419" y="303.165479" style="fill: #1f77b4; fill-opacity: 0.8; stroke: #1f77b4; stroke-opacity: 0.8"/>
     <use xlink:href="#m7c4989fffc" x="242.272617" y="212.825455" style="fill: #1f77b4; fill-opacity: 0.8; stroke: #1f77b4; stroke-opacity: 0.8"/>
     <use xlink:href="#m7c4989fffc" x="276.004741" y="181.774214" style="fill: #1f77b4; fill-opacity: 0.8; stroke: #1f77b4; stroke-opacity: 0.8"/>
     <use xlink:href="#m7c4989fffc" x="230.309028" y="309.14766" style="fill: #1f77b4; fill-opacity: 0.8; stroke: #1f77b4; stroke-opacity: 0.8"/>
     <use xlink:href="#m7c4989fffc" x="171.459445" y="243.015647" style="fill: #1f77b4; fill-opacity: 0.8; stroke: #1f77b4; stroke-opacity: 0.8"/>
     <use xlink:href="#m7c4989fffc" x="100.636883" y="205.479257" style="fill: #1f77b4; fill-opacity: 0.8; stroke: #1f77b4; stroke-opacity: 0.8"/>
     <use xlink:href="#m7c4989fffc" x="211.562238" y="187.806537" style="fill: #1f77b4; fill-opacity: 0.8; stroke: #1f77b4; stroke-opacity: 0.8"/>
     <use xlink:href="#m7c4989fffc" x="242.499422" y="218.390611" style="fill: #1f77b4; fill-opacity: 0.8; stroke: #1f77b4; stroke-opacity: 0.8"/>
     <use xlink:href="#m7c4989fffc" x="124.483712" y="177.869578" style="fill: #1f77b4; fill-opacity: 0.8; stroke: #1f77b4; stroke-opacity: 0.8"/>
     <use xlink:href="#m7c4989fffc" x="58.855812" y="187.626301" style="fill: #1f77b4; fill-opacity: 0.8; stroke: #1f77b4; stroke-opacity: 0.8"/>
     <use xlink:href="#m7c4989fffc" x="91.967291" y="295.677981" style="fill: #1f77b4; fill-opacity: 0.8; stroke: #1f77b4; stroke-opacity: 0.8"/>
     <use xlink:href="#m7c4989fffc" x="285.626215" y="291.564895" style="fill: #1f77b4; fill-opacity: 0.8; stroke: #1f77b4; stroke-opacity: 0.8"/>
     <use xlink:href="#m7c4989fffc" x="87.596358" y="261.600433" style="fill: #1f77b4; fill-opacity: 0.8; stroke: #1f77b4; stroke-opacity: 0.8"/>
     <use xlink:href="#m7c4989fffc" x="213.279583" y="241.677118" style="fill: #1f77b4; fill-opacity: 0.8; stroke: #1f77b4; stroke-opacity: 0.8"/>
     <use xlink:href="#m7c4989fffc" x="190.925786" y="227.061744" style="fill: #1f77b4; fill-opacity: 0.8; stroke: #1f77b4; stroke-opacity: 0.8"/>
     <use xlink:href="#m7c4989fffc" x="303.691816" y="268.916301" style="fill: #1f77b4; fill-opacity: 0.8; stroke: #1f77b4; stroke-opacity: 0.8"/>
    </g>
   </g>
   <g id="PolyCollection_1">
    <defs>
     <path id="mbea0983c7e" d="M 44.675 -245.668524 
L 44.675 -194.935413 
L 47.826291 -194.786949 
L 50.977583 -194.814712 
L 54.128874 -194.841079 
L 57.280166 -194.710969 
L 60.431457 -194.583754 
L 63.582749 -194.45654 
L 66.73404 -194.440571 
L 69.885332 -194.458623 
L 73.036623 -194.126094 
L 76.187915 -193.984342 
L 79.339206 -193.84259 
L 82.490498 -193.725376 
L 85.641789 -193.559087 
L 88.793081 -193.481501 
L 91.944372 -193.4463 
L 95.095664 -193.263421 
L 98.246955 -193.15816 
L 101.398247 -193.140806 
L 104.549538 -193.128294 
L 107.70083 -193.003981 
L 110.852121 -192.554037 
L 114.003413 -192.488423 
L 117.154704 -192.215885 
L 120.305996 -191.992414 
L 123.457287 -191.759479 
L 126.608579 -191.41658 
L 129.75987 -191.378618 
L 132.911162 -191.357736 
L 136.062453 -191.04341 
L 139.213745 -190.674029 
L 142.365036 -190.404673 
L 145.516328 -190.300164 
L 148.667619 -189.915297 
L 151.818911 -189.370258 
L 154.970202 -188.998771 
L 158.121494 -188.541529 
L 161.272785 -188.412293 
L 164.424076 -187.947237 
L 167.575368 -187.622659 
L 170.726659 -187.411901 
L 173.877951 -187.003937 
L 177.029242 -186.577534 
L 180.180534 -185.975618 
L 183.331825 -185.332794 
L 186.483117 -184.817178 
L 189.634408 -184.372627 
L 192.7857 -183.952097 
L 195.936991 -183.500692 
L 199.088283 -182.979312 
L 202.239574 -182.31715 
L 205.390866 -181.668285 
L 208.542157 -180.904362 
L 211.693449 -179.874012 
L 214.84474 -179.435084 
L 217.996032 -178.948832 
L 221.147323 -178.482546 
L 224.298615 -177.686155 
L 227.449906 -176.950121 
L 230.601198 -176.202889 
L 233.752489 -175.709819 
L 236.903781 -174.833409 
L 240.055072 -174.148226 
L 243.206364 -173.460888 
L 246.357655 -172.607735 
L 249.508947 -171.755233 
L 252.660238 -170.863598 
L 255.81153 -169.866731 
L 258.962821 -168.952209 
L 262.114113 -168.040217 
L 265.265404 -167.130425 
L 268.416696 -166.275892 
L 271.567987 -165.550081 
L 274.719278 -164.546995 
L 277.87057 -163.547512 
L 281.021861 -162.740237 
L 284.173153 -161.902976 
L 287.324444 -161.132315 
L 290.475736 -160.405643 
L 293.627027 -159.497079 
L 296.778319 -158.575212 
L 299.92961 -157.658331 
L 303.080902 -156.793998 
L 306.232193 -156.040338 
L 309.383485 -155.288041 
L 312.534776 -154.180197 
L 315.686068 -153.288248 
L 318.837359 -152.4408 
L 321.988651 -151.593353 
L 325.139942 -150.745905 
L 328.291234 -149.898458 
L 331.442525 -149.064881 
L 334.593817 -148.220211 
L 337.745108 -147.285099 
L 340.8964 -146.273976 
L 344.047691 -145.231866 
L 347.198983 -144.192145 
L 350.350274 -143.154888 
L 353.501566 -142.160034 
L 356.652857 -141.159925 
L 356.652857 -199.672995 
L 356.652857 -199.672995 
L 353.501566 -199.577931 
L 350.350274 -199.482867 
L 347.198983 -199.387803 
L 344.047691 -199.295133 
L 340.8964 -199.203897 
L 337.745108 -199.112661 
L 334.593817 -199.021425 
L 331.442525 -199.027659 
L 328.291234 -199.051585 
L 325.139942 -199.061976 
L 321.988651 -198.949255 
L 318.837359 -198.834136 
L 315.686068 -198.721518 
L 312.534776 -198.60738 
L 309.383485 -198.498041 
L 306.232193 -198.514058 
L 303.080902 -198.666156 
L 299.92961 -198.818254 
L 296.778319 -198.970352 
L 293.627027 -199.104371 
L 290.475736 -199.215178 
L 287.324444 -199.398604 
L 284.173153 -199.42866 
L 281.021861 -199.648195 
L 277.87057 -199.886589 
L 274.719278 -200.128211 
L 271.567987 -200.204693 
L 268.416696 -200.325364 
L 265.265404 -200.274691 
L 262.114113 -200.300231 
L 258.962821 -200.181594 
L 255.81153 -200.158562 
L 252.660238 -200.396119 
L 249.508947 -200.55039 
L 246.357655 -200.55763 
L 243.206364 -200.711583 
L 240.055072 -200.932961 
L 236.903781 -201.281565 
L 233.752489 -201.494365 
L 230.601198 -201.569871 
L 227.449906 -201.744132 
L 224.298615 -202.172227 
L 221.147323 -202.598186 
L 217.996032 -202.984761 
L 214.84474 -203.300649 
L 211.693449 -203.560729 
L 208.542157 -203.90186 
L 205.390866 -204.165536 
L 202.239574 -204.896503 
L 199.088283 -205.418104 
L 195.936991 -205.459149 
L 192.7857 -205.964011 
L 189.634408 -206.519482 
L 186.483117 -207.042362 
L 183.331825 -207.66884 
L 180.180534 -208.441974 
L 177.029242 -208.960827 
L 173.877951 -209.633235 
L 170.726659 -210.32627 
L 167.575368 -210.91618 
L 164.424076 -211.561632 
L 161.272785 -212.492677 
L 158.121494 -213.495701 
L 154.970202 -214.096522 
L 151.818911 -214.652704 
L 148.667619 -215.46983 
L 145.516328 -216.285376 
L 142.365036 -217.100672 
L 139.213745 -217.918888 
L 136.062453 -218.733462 
L 132.911162 -219.551715 
L 129.75987 -220.368092 
L 126.608579 -221.184421 
L 123.457287 -221.923665 
L 120.305996 -222.817222 
L 117.154704 -223.633599 
L 114.003413 -224.452345 
L 110.852121 -225.439162 
L 107.70083 -226.544225 
L 104.549538 -227.487255 
L 101.398247 -228.388509 
L 98.246955 -229.365289 
L 95.095664 -230.379022 
L 91.944372 -231.198541 
L 88.793081 -232.080364 
L 85.641789 -233.133313 
L 82.490498 -234.18553 
L 79.339206 -235.085668 
L 76.187915 -235.786883 
L 73.036623 -236.716476 
L 69.885332 -237.713589 
L 66.73404 -238.710703 
L 63.582749 -239.706847 
L 60.431457 -240.702673 
L 57.280166 -241.697985 
L 54.128874 -242.731136 
L 50.977583 -243.995745 
L 47.826291 -244.78612 
L 44.675 -245.668524 
z
" style="stroke: #ffffff; stroke-opacity: 0.15"/>
    </defs>
    <g clip-path="url(#p44cd9ef252)">
     <use xlink:href="#mbea0983c7e" x="0" y="432" style="fill: #1f77b4; fill-opacity: 0.15; stroke: #ffffff; stroke-opacity: 0.15"/>
    </g>
   </g>
   <g id="line2d_11">
    <path d="M 44.675 211.545256 
L 47.826291 212.08216 
L 50.977583 212.619064 
L 54.128874 213.155967 
L 57.280166 213.692871 
L 60.431457 214.229775 
L 63.582749 214.766679 
L 66.73404 215.303583 
L 69.885332 215.840487 
L 73.036623 216.377391 
L 76.187915 216.914295 
L 79.339206 217.451199 
L 82.490498 217.988103 
L 85.641789 218.525007 
L 88.793081 219.061911 
L 91.944372 219.598814 
L 95.095664 220.135718 
L 98.246955 220.672622 
L 101.398247 221.209526 
L 104.549538 221.74643 
L 107.70083 222.283334 
L 110.852121 222.820238 
L 114.003413 223.357142 
L 117.154704 223.894046 
L 120.305996 224.43095 
L 123.457287 224.967854 
L 126.608579 225.504757 
L 129.75987 226.041661 
L 132.911162 226.578565 
L 136.062453 227.115469 
L 139.213745 227.652373 
L 142.365036 228.189277 
L 145.516328 228.726181 
L 148.667619 229.263085 
L 151.818911 229.799989 
L 154.970202 230.336893 
L 158.121494 230.873797 
L 161.272785 231.410701 
L 164.424076 231.947604 
L 167.575368 232.484508 
L 170.726659 233.021412 
L 173.877951 233.558316 
L 177.029242 234.09522 
L 180.180534 234.632124 
L 183.331825 235.169028 
L 186.483117 235.705932 
L 189.634408 236.242836 
L 192.7857 236.77974 
L 195.936991 237.316644 
L 199.088283 237.853548 
L 202.239574 238.390451 
L 205.390866 238.927355 
L 208.542157 239.464259 
L 211.693449 240.001163 
L 214.84474 240.538067 
L 217.996032 241.074971 
L 221.147323 241.611875 
L 224.298615 242.148779 
L 227.449906 242.685683 
L 230.601198 243.222587 
L 233.752489 243.759491 
L 236.903781 244.296394 
L 240.055072 244.833298 
L 243.206364 245.370202 
L 246.357655 245.907106 
L 249.508947 246.44401 
L 252.660238 246.980914 
L 255.81153 247.517818 
L 258.962821 248.054722 
L 262.114113 248.591626 
L 265.265404 249.12853 
L 268.416696 249.665434 
L 271.567987 250.202338 
L 274.719278 250.739241 
L 277.87057 251.276145 
L 281.021861 251.813049 
L 284.173153 252.349953 
L 287.324444 252.886857 
L 290.475736 253.423761 
L 293.627027 253.960665 
L 296.778319 254.497569 
L 299.92961 255.034473 
L 303.080902 255.571377 
L 306.232193 256.108281 
L 309.383485 256.645185 
L 312.534776 257.182088 
L 315.686068 257.718992 
L 318.837359 258.255896 
L 321.988651 258.7928 
L 325.139942 259.329704 
L 328.291234 259.866608 
L 331.442525 260.403512 
L 334.593817 260.940416 
L 337.745108 261.47732 
L 340.8964 262.014224 
L 344.047691 262.551128 
L 347.198983 263.088031 
L 350.350274 263.624935 
L 353.501566 264.161839 
L 356.652857 264.698743 
" clip-path="url(#p44cd9ef252)" style="fill: none; stroke: #1f77b4; stroke-width: 2.25; stroke-linecap: round"/>
   </g>
   <g id="patch_3">
    <path d="M 44.675 392.2 
L 44.675 76.182857 
" style="fill: none; stroke: #cccccc; stroke-width: 0.8; stroke-linejoin: miter; stroke-linecap: square"/>
   </g>
   <g id="patch_4">
    <path d="M 44.675 392.2 
L 356.652857 392.2 
" style="fill: none; stroke: #cccccc; stroke-width: 0.8; stroke-linejoin: miter; stroke-linecap: square"/>
   </g>
  </g>
  <g id="axes_2">
   <g id="patch_5">
    <path d="M 44.675 65.285714 
L 356.652857 65.285714 
L 356.652857 10.8 
L 44.675 10.8 
z
" style="fill: #ffffff"/>
   </g>
   <g id="matplotlib.axis_3">
    <g id="xtick_6">
     <g id="line2d_12">
      <path d="M 68.562305 65.285714 
L 68.562305 10.8 
" clip-path="url(#p0d1eb5ea04)" style="fill: none; stroke: #cccccc; stroke-width: 0.8; stroke-linecap: round"/>
     </g>
    </g>
    <g id="xtick_7">
     <g id="line2d_13">
      <path d="M 126.242267 65.285714 
L 126.242267 10.8 
" clip-path="url(#p0d1eb5ea04)" style="fill: none; stroke: #cccccc; stroke-width: 0.8; stroke-linecap: round"/>
     </g>
    </g>
    <g id="xtick_8">
     <g id="line2d_14">
      <path d="M 183.922229 65.285714 
L 183.922229 10.8 
" clip-path="url(#p0d1eb5ea04)" style="fill: none; stroke: #cccccc; stroke-width: 0.8; stroke-linecap: round"/>
     </g>
    </g>
    <g id="xtick_9">
     <g id="line2d_15">
      <path d="M 241.602191 65.285714 
L 241.602191 10.8 
" clip-path="url(#p0d1eb5ea04)" style="fill: none; stroke: #cccccc; stroke-width: 0.8; stroke-linecap: round"/>
     </g>
    </g>
    <g id="xtick_10">
     <g id="line2d_16">
      <path d="M 299.282152 65.285714 
L 299.282152 10.8 
" clip-path="url(#p0d1eb5ea04)" style="fill: none; stroke: #cccccc; stroke-width: 0.8; stroke-linecap: round"/>
     </g>
    </g>
   </g>
   <g id="matplotlib.axis_4">
    <g id="ytick_6"/>
    <g id="ytick_7"/>
   </g>
   <g id="patch_6">
    <path d="M 58.855812 65.285714 
L 94.307841 65.285714 
L 94.307841 41.698825 
L 58.855812 41.698825 
z
" clip-path="url(#p0d1eb5ea04)" style="fill: #1f77b4; fill-opacity: 0.5; stroke: #ffffff; stroke-linejoin: miter"/>
   </g>
   <g id="patch_7">
    <path d="M 94.307841 65.285714 
L 129.75987 65.285714 
L 129.75987 36.981447 
L 94.307841 36.981447 
z
" clip-path="url(#p0d1eb5ea04)" style="fill: #1f77b4; fill-opacity: 0.5; stroke: #ffffff; stroke-linejoin: miter"/>
   </g>
   <g id="patch_8">
    <path d="M 129.75987 65.285714 
L 165.211899 65.285714 
L 165.211899 32.264069 
L 129.75987 32.264069 
z
" clip-path="url(#p0d1eb5ea04)" style="fill: #1f77b4; fill-opacity: 0.5; stroke: #ffffff; stroke-linejoin: miter"/>
   </g>
   <g id="patch_9">
    <path d="M 165.211899 65.285714 
L 200.663929 65.285714 
L 200.663929 13.394558 
L 165.211899 13.394558 
z
" clip-path="url(#p0d1eb5ea04)" style="fill: #1f77b4; fill-opacity: 0.5; stroke: #ffffff; stroke-linejoin: miter"/>
   </g>
   <g id="patch_10">
    <path d="M 200.663929 65.285714 
L 236.115958 65.285714 
L 236.115958 15.753247 
L 200.663929 15.753247 
z
" clip-path="url(#p0d1eb5ea04)" style="fill: #1f77b4; fill-opacity: 0.5; stroke: #ffffff; stroke-linejoin: miter"/>
   </g>
   <g id="patch_11">
    <path d="M 236.115958 65.285714 
L 271.567987 65.285714 
L 271.567987 32.264069 
L 236.115958 32.264069 
z
" clip-path="url(#p0d1eb5ea04)" style="fill: #1f77b4; fill-opacity: 0.5; stroke: #ffffff; stroke-linejoin: miter"/>
   </g>
   <g id="patch_12">
    <path d="M 271.567987 65.285714 
L 307.020016 65.285714 
L 307.020016 55.850959 
L 271.567987 55.850959 
z
" clip-path="url(#p0d1eb5ea04)" style="fill: #1f77b4; fill-opacity: 0.5; stroke: #ffffff; stroke-linejoin: miter"/>
   </g>
   <g id="patch_13">
    <path d="M 307.020016 65.285714 
L 342.472045 65.285714 
L 342.472045 58.209647 
L 307.020016 58.209647 
z
" clip-path="url(#p0d1eb5ea04)" style="fill: #1f77b4; fill-opacity: 0.5; stroke: #ffffff; stroke-linejoin: miter"/>
   </g>
   <g id="line2d_17">
    <path d="M 58.855812 54.550309 
L 67.407055 51.123292 
L 78.808713 46.560155 
L 85.934749 43.985418 
L 91.635577 42.157584 
L 98.761613 40.149798 
L 108.738064 37.643001 
L 118.714514 35.06796 
L 125.84055 32.983383 
L 132.966586 30.667714 
L 152.919487 23.996801 
L 158.620316 22.416571 
L 164.321145 21.09888 
L 170.021974 20.059761 
L 175.722802 19.288212 
L 181.423631 18.758695 
L 187.12446 18.446452 
L 192.825289 18.34055 
L 198.526118 18.45048 
L 204.226947 18.804488 
L 208.502568 19.253147 
L 212.77819 19.876539 
L 217.053811 20.686935 
L 221.329433 21.69082 
L 225.605055 22.887699 
L 229.880676 24.269952 
L 235.581505 26.376351 
L 241.282334 28.740361 
L 248.40837 31.971826 
L 258.38482 36.80029 
L 272.636892 43.725851 
L 279.762928 46.950053 
L 285.463757 49.320653 
L 291.164586 51.461055 
L 296.865415 53.344901 
L 302.566244 54.963504 
L 308.267073 56.32723 
L 313.967901 57.464039 
L 321.093937 58.629465 
L 329.645181 59.776221 
L 342.472045 61.262496 
L 342.472045 61.262496 
" clip-path="url(#p0d1eb5ea04)" style="fill: none; stroke: #1f77b4; stroke-width: 1.5; stroke-linecap: round"/>
   </g>
   <g id="patch_14">
    <path d="M 44.675 65.285714 
L 356.652857 65.285714 
" style="fill: none; stroke: #cccccc; stroke-width: 0.8; stroke-linejoin: miter; stroke-linecap: square"/>
   </g>
  </g>
  <g id="axes_3">
   <g id="patch_15">
    <path d="M 367.410714 392.2 
L 421.2 392.2 
L 421.2 76.182857 
L 367.410714 76.182857 
z
" style="fill: #ffffff"/>
   </g>
   <g id="matplotlib.axis_5">
    <g id="xtick_11"/>
    <g id="xtick_12"/>
   </g>
   <g id="matplotlib.axis_6">
    <g id="ytick_8">
     <g id="line2d_18">
      <path d="M 367.410714 350.182854 
L 421.2 350.182854 
" clip-path="url(#pd88cfc167b)" style="fill: none; stroke: #cccccc; stroke-width: 0.8; stroke-linecap: round"/>
     </g>
    </g>
    <g id="ytick_9">
     <g id="line2d_19">
      <path d="M 367.410714 292.207567 
L 421.2 292.207567 
" clip-path="url(#pd88cfc167b)" style="fill: none; stroke: #cccccc; stroke-width: 0.8; stroke-linecap: round"/>
     </g>
    </g>
    <g id="ytick_10">
     <g id="line2d_20">
      <path d="M 367.410714 234.232279 
L 421.2 234.232279 
" clip-path="url(#pd88cfc167b)" style="fill: none; stroke: #cccccc; stroke-width: 0.8; stroke-linecap: round"/>
     </g>
    </g>
    <g id="ytick_11">
     <g id="line2d_21">
      <path d="M 367.410714 176.256991 
L 421.2 176.256991 
" clip-path="url(#pd88cfc167b)" style="fill: none; stroke: #cccccc; stroke-width: 0.8; stroke-linecap: round"/>
     </g>
    </g>
    <g id="ytick_12">
     <g id="line2d_22">
      <path d="M 367.410714 118.281704 
L 421.2 118.281704 
" clip-path="url(#pd88cfc167b)" style="fill: none; stroke: #cccccc; stroke-width: 0.8; stroke-linecap: round"/>
     </g>
    </g>
   </g>
   <g id="patch_16">
    <path d="M 367.410714 377.835584 
L 376.724876 377.835584 
L 376.724876 349.106753 
L 367.410714 349.106753 
z
" clip-path="url(#pd88cfc167b)" style="fill: #1f77b4; fill-opacity: 0.5; stroke: #ffffff; stroke-linejoin: miter"/>
   </g>
   <g id="patch_17">
    <path d="M 367.410714 349.106753 
L 381.381957 349.106753 
L 381.381957 320.377922 
L 367.410714 320.377922 
z
" clip-path="url(#pd88cfc167b)" style="fill: #1f77b4; fill-opacity: 0.5; stroke: #ffffff; stroke-linejoin: miter"/>
   </g>
   <g id="patch_18">
    <path d="M 367.410714 320.377922 
L 386.039038 320.377922 
L 386.039038 291.649091 
L 367.410714 291.649091 
z
" clip-path="url(#pd88cfc167b)" style="fill: #1f77b4; fill-opacity: 0.5; stroke: #ffffff; stroke-linejoin: miter"/>
   </g>
   <g id="patch_19">
    <path d="M 367.410714 291.649091 
L 395.3532 291.649091 
L 395.3532 262.92026 
L 367.410714 262.92026 
z
" clip-path="url(#pd88cfc167b)" style="fill: #1f77b4; fill-opacity: 0.5; stroke: #ffffff; stroke-linejoin: miter"/>
   </g>
   <g id="patch_20">
    <path d="M 367.410714 262.92026 
L 409.324443 262.92026 
L 409.324443 234.191429 
L 367.410714 234.191429 
z
" clip-path="url(#pd88cfc167b)" style="fill: #1f77b4; fill-opacity: 0.5; stroke: #ffffff; stroke-linejoin: miter"/>
   </g>
   <g id="patch_21">
    <path d="M 367.410714 234.191429 
L 418.638605 234.191429 
L 418.638605 205.462597 
L 367.410714 205.462597 
z
" clip-path="url(#pd88cfc167b)" style="fill: #1f77b4; fill-opacity: 0.5; stroke: #ffffff; stroke-linejoin: miter"/>
   </g>
   <g id="patch_22">
    <path d="M 367.410714 205.462597 
L 404.667362 205.462597 
L 404.667362 176.733766 
L 367.410714 176.733766 
z
" clip-path="url(#pd88cfc167b)" style="fill: #1f77b4; fill-opacity: 0.5; stroke: #ffffff; stroke-linejoin: miter"/>
   </g>
   <g id="patch_23">
    <path d="M 367.410714 176.733766 
L 383.710498 176.733766 
L 383.710498 148.004935 
L 367.410714 148.004935 
z
" clip-path="url(#pd88cfc167b)" style="fill: #1f77b4; fill-opacity: 0.5; stroke: #ffffff; stroke-linejoin: miter"/>
   </g>
   <g id="patch_24">
    <path d="M 367.410714 148.004935 
L 379.053417 148.004935 
L 379.053417 119.276104 
L 367.410714 119.276104 
z
" clip-path="url(#pd88cfc167b)" style="fill: #1f77b4; fill-opacity: 0.5; stroke: #ffffff; stroke-linejoin: miter"/>
   </g>
   <g id="patch_25">
    <path d="M 367.410714 119.276104 
L 372.067795 119.276104 
L 372.067795 90.547273 
L 367.410714 90.547273 
z
" clip-path="url(#pd88cfc167b)" style="fill: #1f77b4; fill-opacity: 0.5; stroke: #ffffff; stroke-linejoin: miter"/>
   </g>
   <g id="line2d_23">
    <path d="M 371.749193 377.835584 
L 373.182162 370.617285 
L 375.123938 361.955326 
L 383.863383 324.42017 
L 388.830683 301.321612 
L 390.621972 294.103313 
L 392.657994 286.885013 
L 394.500344 281.110374 
L 396.543694 275.335735 
L 399.353017 268.117435 
L 408.089165 246.462537 
L 409.513183 242.131558 
L 410.703973 237.800578 
L 411.61813 233.469599 
L 412.222585 229.138619 
L 412.442345 226.251299 
L 412.511087 223.36398 
L 412.42751 220.47666 
L 412.192408 217.58934 
L 411.562079 213.258361 
L 410.613609 208.927381 
L 409.370317 204.596401 
L 407.860828 200.265422 
L 406.117484 195.934442 
L 403.489813 190.159803 
L 400.596747 184.385163 
L 395.969213 175.723204 
L 389.813385 164.173925 
L 386.975745 158.399286 
L 384.406436 152.624647 
L 382.144119 146.850007 
L 380.186927 141.075368 
L 378.499319 135.300728 
L 377.027522 129.526089 
L 375.410174 122.30779 
L 373.703983 113.64583 
L 372.215871 104.983871 
L 370.95522 96.321912 
L 370.246051 90.547273 
L 370.246051 90.547273 
" clip-path="url(#pd88cfc167b)" style="fill: none; stroke: #1f77b4; stroke-width: 1.5; stroke-linecap: round"/>
   </g>
   <g id="patch_26">
    <path d="M 367.410714 392.2 
L 367.410714 76.182857 
" style="fill: none; stroke: #cccccc; stroke-width: 0.8; stroke-linejoin: miter; stroke-linecap: square"/>
   </g>
  </g>
 </g>
 <defs>
  <clipPath id="p44cd9ef252">
   <rect x="44.675" y="76.182857" width="311.977857" height="316.017143"/>
  </clipPath>
  <clipPath id="p0d1eb5ea04">
   <rect x="44.675" y="10.8" width="311.977857" height="54.485714"/>
  </clipPath>
  <clipPath id="pd88cfc167b">
   <rect x="367.410714" y="76.182857" width="53.789286" height="316.017143"/>
  </clipPath>
 </defs>
</svg>
